<svg xmlns="http://www.w3.org/2000/svg" viewBox="0 0 140.36 118.38"><defs><style>.cls-1{fill:none;stroke:#000;stroke-linecap:round;stroke-linejoin:round;stroke-width:1.5px;}.cls-2{fill:#c7daff;}.cls-3{fill:#e55d28;}.cls-4{fill:#8e8e8e;}.cls-5{fill:#314bdd;}.cls-6{fill:#009245;}</style></defs><title>Recurso 3</title><g id="Capa_2" data-name="Capa 2"><g id="Capa_1-2" data-name="Capa 1"><rect class="cls-1" x="22.42" y="17.02" width="79.31" height="79.31"/><rect class="cls-1" x="5.25" y="34.2" width="79.31" height="79.31"/><rect class="cls-1" x="9.67" y="29.39" width="79.31" height="79.31"/><rect class="cls-1" x="14.17" y="25.27" width="79.31" height="79.31"/><rect class="cls-1" x="17.93" y="21.14" width="79.31" height="79.31"/><path class="cls-2" d="M30.19,54.41a3.18,3.18,0,1,1-2.57-3.7A3.19,3.19,0,0,1,30.19,54.41Z"/><circle class="cls-2" cx="26.03" cy="81.69" r="3.18"/><circle class="cls-3" cx="31.61" cy="68.68" r="6.37"/><circle class="cls-2" cx="41.02" cy="93.02" r="3.18"/><circle class="cls-4" cx="54.58" cy="83.6" r="6.37"/><circle class="cls-5" cx="58.57" cy="61.46" r="6.37"/><circle class="cls-2" cx="70.51" cy="71.16" r="3.18"/><circle class="cls-2" cx="73.9" cy="52.37" r="3.18"/><circle class="cls-2" cx="65.77" cy="97.48" r="3.18"/><circle class="cls-2" cx="68.88" cy="86.18" r="2.12"/><path d="M27.81,49.66A4.25,4.25,0,0,0,26.3,58a4.61,4.61,0,0,0,1,.06L28.36,62a7.43,7.43,0,0,0-.63,13l-1.06,2.48a4.25,4.25,0,1,0,1.95.84l1.06-2.48.61.14a7.48,7.48,0,0,0,6.8-2.3l1.38.85a1.06,1.06,0,0,0,1.11-1.81l-1.3-.79A7.62,7.62,0,0,0,38.92,70a7.44,7.44,0,0,0-8.54-8.65L29.3,57.44a4.21,4.21,0,0,0,1.93-2.85,4.25,4.25,0,0,0-3.42-4.93ZM26.4,79.6a2.12,2.12,0,1,1-2.46,1.71A2.12,2.12,0,0,1,26.4,79.6Zm0-11.86A5.28,5.28,0,0,1,30,63.63h0a5.31,5.31,0,1,1-3.57,4.11ZM25,53.46a2.12,2.12,0,1,1,1.71,2.47A2.12,2.12,0,0,1,25,53.46Z"/><path d="M74.65,48.19a4.26,4.26,0,0,0-4.93,3.42,4.42,4.42,0,0,0,.1,1.92l-5.43,3.32a7.42,7.42,0,0,0-10.91-.8,6.37,6.37,0,0,0-.77.83,4.74,4.74,0,0,0-.55.83,6.46,6.46,0,0,0-.9,2.44,7.44,7.44,0,0,0,5,8.36l-1.38,7.67a7.44,7.44,0,0,0-5.74,2.41l-1.38-.85a1.06,1.06,0,1,0-1.12,1.8l1.3.8a7.23,7.23,0,0,0-.63,1.94,7.4,7.4,0,0,0,.66,4.64L43.79,89.8a4.24,4.24,0,1,0,1.41,4,4.33,4.33,0,0,0-.2-2.23l4.14-2.87A7.45,7.45,0,0,0,58.42,90l3.93,5a4.24,4.24,0,1,0,4.17-1.67,4.18,4.18,0,0,0-2.53.33l-3.93-5A7.44,7.44,0,0,0,61.62,86l4.12.74a3.18,3.18,0,1,0,.38-2.09L62,83.86a7.43,7.43,0,0,0-5.07-7.3l1.38-7.67a7.41,7.41,0,0,0,5.33-2l3,2.52a4,4,0,0,0-.31,1A4.24,4.24,0,1,0,68,67.76l-3-2.53a7.54,7.54,0,0,0,.91-2.45,7.36,7.36,0,0,0-.43-4.1l5.44-3.32a4.25,4.25,0,1,0,3.76-7.17ZM43.11,93.39a2.12,2.12,0,1,1-1.71-2.46,2.09,2.09,0,0,1,1.36.88A2.11,2.11,0,0,1,43.11,93.39ZM63.68,97.1a2.12,2.12,0,1,1,1.71,2.47A2.12,2.12,0,0,1,63.68,97.1Zm5.39-12a1.06,1.06,0,1,1-1.23.85A1.06,1.06,0,0,1,69.07,85.14Zm-9.27-.6a5.3,5.3,0,1,1-4.28-6.16A5.3,5.3,0,0,1,59.8,84.54Zm4-22.14a5.3,5.3,0,1,1-4.28-6.16A5.3,5.3,0,0,1,63.79,62.4Zm4.63,8.39a2.12,2.12,0,1,1,1.72,2.46A2.12,2.12,0,0,1,68.42,70.79ZM76,52.74a2.12,2.12,0,1,1-1.71-2.46A2.13,2.13,0,0,1,76,52.74Z"/><path d="M57.9,59.19a1.07,1.07,0,0,0,.86,1.23,1.06,1.06,0,0,1,.85,1.23A1.06,1.06,0,0,0,61.7,62a3.19,3.19,0,0,0-2.57-3.7A1.06,1.06,0,0,0,57.9,59.19Z"/><path d="M55.14,80.47a1.05,1.05,0,0,0-1.23.85,1.07,1.07,0,0,0,.85,1.24,1.06,1.06,0,0,1,.86,1.23,1.06,1.06,0,0,0,2.09.38A3.19,3.19,0,0,0,55.14,80.47Z"/><circle cx="43.09" cy="76.14" r="1.06"/><path d="M30.94,66.4a1.05,1.05,0,0,0,.85,1.23,1.07,1.07,0,0,1,.86,1.24,1.06,1.06,0,1,0,2.09.37,3.19,3.19,0,0,0-2.57-3.7A1.06,1.06,0,0,0,30.94,66.4Z"/><path class="cls-6" d="M92,41.8,94.8,30.32l3.65-18.4a37.91,37.91,0,0,0,.86-5.59c0-1.54-.73-2.31-2.2-2.31Q93.47,4,86,12.21l.67-3.42Q94.8,0,101.32,0c3.58,0,5.36,1.86,5.36,5.59a38.37,38.37,0,0,1-.85,6.33L104,21.12h.56A55.5,55.5,0,0,1,115.08,5.79Q121,0,126,0q6.11,0,6.11,6.78a27.48,27.48,0,0,1-.64,5.36l-3.61,18.18a39.1,39.1,0,0,0-.86,5.59c0,1.57.74,2.35,2.2,2.35q3.72,0,11.14-8.19l-.71,3.46q-8.11,8.76-14.64,8.75-5.36,0-5.36-5.62a37.9,37.9,0,0,1,.89-6.32l3.62-18.24a18.3,18.3,0,0,0,.44-3.57c0-2-.74-3-2.23-3q-7.12,0-19.75,22.54L99.9,41.35Z"/><rect class="cls-1" x="0.75" y="38.32" width="79.31" height="79.31"/></g></g></svg>